<svg width="32" height="32" viewBox="0 0 32 32" fill="none" xmlns="http://www.w3.org/2000/svg">
<g clip-path="url(#clip0_235_42)">
<path fill-rule="evenodd" clip-rule="evenodd" d="M16 0.377991C10.1268 0.377991 5.36377 5.13974 5.36377 11.0142C5.36377 15.7135 8.41127 19.7005 12.6375 21.1067C13.169 21.2052 13.3643 20.876 13.3643 20.595C13.3643 20.3415 13.3543 19.5035 13.3498 18.615C10.3905 19.2582 9.76627 17.36 9.76627 17.36C9.28252 16.1305 8.58527 15.8035 8.58527 15.8035C7.62027 15.1435 8.65777 15.157 8.65777 15.157C9.72602 15.232 10.2885 16.2532 10.2885 16.2532C11.237 17.8792 12.7768 17.409 13.3835 17.1372C13.4793 16.4497 13.7548 15.9802 14.059 15.7147C11.6965 15.446 9.21302 14.5337 9.21302 10.4582C9.21302 9.29699 9.62852 8.34824 10.309 7.60324C10.1985 7.33524 9.83452 6.25324 10.412 4.78824C10.412 4.78824 11.305 4.50274 13.337 5.87899C14.1858 5.64324 15.0958 5.52499 15.9995 5.52099C16.9035 5.52524 17.814 5.64349 18.664 5.87899C20.694 4.50299 21.586 4.78849 21.586 4.78849C22.165 6.25349 21.801 7.33524 21.6905 7.60349C22.3725 8.34799 22.785 9.29699 22.785 10.4585C22.785 14.5435 20.2968 15.443 17.9283 15.706C18.3098 16.036 18.6498 16.6835 18.6498 17.676C18.6498 19.099 18.6378 20.2442 18.6378 20.5945C18.6378 20.877 18.8293 21.209 19.3683 21.1045C23.5923 19.6965 26.6358 15.711 26.6358 11.0132C26.6363 5.13999 21.8743 0.377991 16 0.377991Z" fill="#9DFFFA"/>
<path d="M9.39254 15.649C9.36879 15.702 9.28554 15.7177 9.21004 15.6815C9.13254 15.6465 9.08954 15.5747 9.11454 15.5215C9.13704 15.4675 9.22054 15.4522 9.29779 15.4885C9.37529 15.5235 9.41904 15.596 9.39254 15.649ZM9.82329 16.13C9.77254 16.1767 9.67329 16.155 9.60579 16.0805C9.53629 16.0062 9.52329 15.907 9.57479 15.8595C9.62679 15.8125 9.72304 15.8345 9.79229 15.9087C9.86229 15.9837 9.87604 16.082 9.82304 16.1297L9.82329 16.13ZM10.2425 16.742C10.1775 16.7875 10.0708 16.745 10.005 16.6502C9.93954 16.556 9.93954 16.4427 10.0063 16.397C10.0723 16.3515 10.1773 16.3925 10.2438 16.4862C10.3093 16.5825 10.3093 16.696 10.2425 16.742ZM10.817 17.334C10.7588 17.3982 10.6345 17.381 10.5438 17.2932C10.4508 17.2075 10.425 17.0857 10.4833 17.0215C10.5425 16.9572 10.6673 16.9752 10.7588 17.0622C10.8513 17.1477 10.8793 17.27 10.817 17.334ZM11.61 17.6775C11.584 17.761 11.4645 17.7987 11.344 17.7635C11.2235 17.727 11.145 17.6295 11.169 17.5455C11.194 17.4615 11.3145 17.4222 11.4358 17.46C11.5558 17.496 11.6348 17.5925 11.61 17.6775ZM12.48 17.7412C12.4833 17.8287 12.381 17.9017 12.2545 17.9032C12.1275 17.9062 12.0245 17.8352 12.023 17.7487C12.023 17.6602 12.123 17.5882 12.25 17.5862C12.3765 17.5837 12.48 17.6542 12.48 17.7412ZM13.29 17.6035C13.305 17.689 13.2175 17.777 13.0918 17.8002C12.9683 17.8232 12.8543 17.7702 12.8383 17.6852C12.8233 17.5977 12.9125 17.5102 13.0358 17.4872C13.1615 17.4652 13.274 17.5165 13.29 17.6035Z" fill="#9DFFFA"/>
<path d="M6.21378 27.0755H3.53878C3.50563 27.0755 3.47384 27.0887 3.45039 27.1121C3.42695 27.1356 3.41378 27.1674 3.41378 27.2005V28.5085C3.41378 28.5417 3.42695 28.5734 3.45039 28.5969C3.47384 28.6203 3.50563 28.6335 3.53878 28.6335H4.58203V30.2585C4.58203 30.2585 4.34778 30.3385 3.69953 30.3385C2.93553 30.3385 1.86778 30.0595 1.86778 27.7115C1.86778 25.3633 2.97978 25.054 4.02378 25.054C4.92728 25.054 5.31628 25.213 5.56428 25.2898C5.64178 25.3133 5.71428 25.2358 5.71428 25.1668L6.01253 23.903C6.01297 23.8841 6.00884 23.8653 6.00048 23.8484C5.99212 23.8314 5.97979 23.8167 5.96453 23.8055C5.86378 23.7335 5.25028 23.3905 3.70003 23.3905C1.91403 23.3905 0.0820312 24.15 0.0820312 27.803C0.0820312 31.4555 2.17953 31.9998 3.94703 31.9998C5.41053 31.9998 6.29828 31.3743 6.29828 31.3743C6.33478 31.3543 6.33878 31.303 6.33878 31.2793V27.2003C6.33878 27.1671 6.32561 27.1353 6.30217 27.1119C6.27873 27.0884 6.24693 27.0755 6.21378 27.0755ZM19.8765 23.7025H18.37C18.3536 23.7026 18.3373 23.7059 18.3222 23.7122C18.307 23.7186 18.2933 23.7279 18.2817 23.7396C18.2701 23.7512 18.261 23.7651 18.2548 23.7803C18.2486 23.7955 18.2454 23.8118 18.2455 23.8283L18.246 26.7393H15.898V23.8283C15.8981 23.8118 15.895 23.7956 15.8888 23.7804C15.8826 23.7652 15.8735 23.7513 15.862 23.7396C15.8504 23.728 15.8367 23.7187 15.8216 23.7123C15.8064 23.7059 15.7902 23.7026 15.7738 23.7025H14.2675C14.2511 23.7026 14.2348 23.7059 14.2197 23.7122C14.2045 23.7186 14.1908 23.7279 14.1792 23.7396C14.1676 23.7512 14.1585 23.7651 14.1523 23.7803C14.1461 23.7955 14.1429 23.8118 14.143 23.8283V31.7108C14.143 31.78 14.199 31.8365 14.2675 31.8365H15.7738C15.7902 31.8364 15.8065 31.8331 15.8216 31.8267C15.8368 31.8203 15.8505 31.811 15.862 31.7993C15.8736 31.7876 15.8827 31.7737 15.8889 31.7585C15.8951 31.7432 15.8982 31.7269 15.898 31.7105V28.339H18.246L18.242 31.7105C18.242 31.78 18.298 31.8365 18.367 31.8365H19.8765C19.893 31.8364 19.9092 31.8331 19.9244 31.8267C19.9395 31.8203 19.9532 31.811 19.9648 31.7993C19.9763 31.7876 19.9854 31.7737 19.9916 31.7585C19.9978 31.7432 20.0009 31.7269 20.0008 31.7105V23.828C20.0009 23.8116 19.9979 23.7953 19.9917 23.7801C19.9855 23.7649 19.9764 23.751 19.9648 23.7393C19.9533 23.7277 19.9395 23.7184 19.9244 23.7121C19.9092 23.7058 19.893 23.7025 19.8765 23.7025ZM8.08503 23.8818C7.54903 23.8818 7.11403 24.32 7.11403 24.8625C7.11403 25.4043 7.54903 25.8438 8.08503 25.8438C8.62153 25.8438 9.05628 25.4043 9.05628 24.8625C9.05628 24.32 8.62128 23.8818 8.08503 23.8818ZM8.82403 26.2838H7.32253C7.25353 26.2838 7.19203 26.3548 7.19203 26.4238V31.6368C7.19203 31.79 7.28753 31.8355 7.41103 31.8355H8.76353C8.91228 31.8355 8.94853 31.7625 8.94853 31.6343V26.4095C8.9486 26.3931 8.94543 26.3768 8.93921 26.3616C8.93299 26.3464 8.92383 26.3326 8.91227 26.321C8.90071 26.3093 8.88697 26.3001 8.87183 26.2937C8.85669 26.2874 8.84045 26.2838 8.82403 26.2838ZM25.7255 26.2955H24.2305C24.2141 26.2956 24.1979 26.299 24.1828 26.3054C24.1677 26.3118 24.1539 26.3211 24.1424 26.3328C24.1309 26.3445 24.1218 26.3584 24.1157 26.3736C24.1095 26.3888 24.1064 26.4051 24.1065 26.4215V30.2865C24.1065 30.2865 23.7265 30.564 23.1878 30.564C22.649 30.564 22.506 30.3198 22.506 29.792V26.4215C22.5062 26.4051 22.5031 26.3888 22.4969 26.3735C22.4907 26.3583 22.4816 26.3444 22.47 26.3327C22.4585 26.321 22.4448 26.3117 22.4296 26.3053C22.4145 26.2989 22.3982 26.2956 22.3818 26.2955H20.8648C20.8483 26.2956 20.832 26.2989 20.8169 26.3053C20.8017 26.3116 20.7879 26.3209 20.7764 26.3326C20.7648 26.3444 20.7557 26.3582 20.7495 26.3735C20.7433 26.3887 20.7401 26.405 20.7403 26.4215V30.047C20.7403 31.6145 21.614 31.998 22.8158 31.998C23.8018 31.998 24.5968 31.453 24.5968 31.453C24.5968 31.453 24.6343 31.7405 24.6518 31.7743C24.6693 31.8083 24.7135 31.8425 24.7618 31.8425L25.7268 31.8383C25.7433 31.8383 25.7596 31.835 25.7748 31.8286C25.7901 31.8223 25.8039 31.813 25.8155 31.8013C25.8271 31.7896 25.8363 31.7757 25.8426 31.7604C25.8488 31.7451 25.8519 31.7288 25.8518 31.7123L25.851 26.4208C25.8509 26.3876 25.8377 26.3558 25.8143 26.3323C25.7909 26.3088 25.7592 26.2955 25.726 26.2953L25.7255 26.2955ZM29.811 26.1185C28.962 26.1185 28.3845 26.4973 28.3845 26.4973V23.828C28.3846 23.8116 28.3815 23.7953 28.3753 23.7801C28.3691 23.7649 28.36 23.7511 28.3484 23.7394C28.3369 23.7277 28.3232 23.7184 28.3081 23.7121C28.2929 23.7057 28.2767 23.7024 28.2603 23.7023H26.75C26.7336 23.7023 26.7172 23.7055 26.702 23.7118C26.6868 23.7182 26.673 23.7274 26.6614 23.7391C26.6498 23.7508 26.6406 23.7647 26.6343 23.7799C26.6281 23.7952 26.6249 23.8115 26.625 23.828V31.7105C26.6249 31.727 26.6281 31.7433 26.6343 31.7586C26.6406 31.7738 26.6498 31.7877 26.6614 31.7994C26.673 31.8111 26.6868 31.8203 26.702 31.8267C26.7172 31.833 26.7336 31.8363 26.75 31.8363H27.798C27.8455 31.8363 27.881 31.812 27.9073 31.7693C27.933 31.7268 27.9708 31.4058 27.9708 31.4058C27.9708 31.4058 28.5883 31.9908 29.7578 31.9908C31.1303 31.9908 31.9178 31.2948 31.9178 28.8653C31.9178 26.4358 30.6603 26.1183 29.8108 26.1183L29.811 26.1185ZM29.221 30.5595C28.7028 30.5438 28.351 30.3085 28.351 30.3085V27.8123C28.351 27.8123 28.698 27.5998 29.1235 27.5613C29.6618 27.513 30.1805 27.6758 30.1805 28.9598C30.1805 30.314 29.9468 30.5813 29.2213 30.5593L29.221 30.5595ZM13.2988 30.53C13.233 30.53 13.0645 30.5568 12.8913 30.5568C12.3363 30.5568 12.148 30.2988 12.148 29.9648V27.7483H13.278C13.2945 27.7483 13.3109 27.745 13.3261 27.7386C13.3413 27.7323 13.3552 27.723 13.3668 27.7113C13.3784 27.6996 13.3876 27.6857 13.3938 27.6704C13.4 27.6551 13.4032 27.6388 13.403 27.6223V26.4083C13.4031 26.3918 13.3999 26.3755 13.3937 26.3603C13.3874 26.345 13.3782 26.3312 13.3666 26.3195C13.355 26.3079 13.3412 26.2986 13.326 26.2923C13.3108 26.286 13.2945 26.2828 13.278 26.2828H12.148L12.1463 24.7903C12.1463 24.7335 12.1173 24.7053 12.0518 24.7053H10.5118C10.4523 24.7053 10.42 24.7318 10.42 24.789V26.3315C10.42 26.3315 9.64828 26.5178 9.59628 26.5328C9.57032 26.5403 9.54751 26.5561 9.53128 26.5778C9.51505 26.5994 9.50628 26.6257 9.50628 26.6528V27.622C9.50618 27.6384 9.50932 27.6547 9.51551 27.6699C9.5217 27.6851 9.53082 27.6989 9.54236 27.7106C9.5539 27.7223 9.56763 27.7316 9.58275 27.738C9.59788 27.7443 9.61412 27.7477 9.63053 27.7478H10.42V30.0798C10.42 31.8123 11.635 31.9823 12.455 31.9823C12.8293 31.9823 13.2775 31.8623 13.3515 31.8348C13.3965 31.818 13.4223 31.7718 13.4223 31.7215L13.4233 30.6553C13.4228 30.6222 13.4095 30.5907 13.3861 30.5673C13.3628 30.5438 13.3313 30.5304 13.2983 30.5298L13.2988 30.53Z" fill="#9DFFFA"/>
</g>
<defs>
<clipPath id="clip0_235_42">
<rect width="32" height="32" fill="white"/>
</clipPath>
</defs>
</svg>
