<svg width="40" height="40" viewBox="0 0 40 40" fill="none" xmlns="http://www.w3.org/2000/svg">
<path d="M6.66667 30C6.66667 28.2319 7.36905 26.5362 8.61929 25.286C9.86953 24.0358 11.5652 23.3334 13.3333 23.3334H26.6667C28.4348 23.3334 30.1305 24.0358 31.3807 25.286C32.631 26.5362 33.3333 28.2319 33.3333 30C33.3333 30.8841 32.9821 31.7319 32.357 32.3571C31.7319 32.9822 30.8841 33.3334 30 33.3334H10C9.11595 33.3334 8.2681 32.9822 7.64298 32.3571C7.01786 31.7319 6.66667 30.8841 6.66667 30Z" stroke="#9DFFFA" stroke-width="3" stroke-linejoin="round"/>
<path d="M20 16.6667C22.7614 16.6667 25 14.4281 25 11.6667C25 8.90526 22.7614 6.66669 20 6.66669C17.2386 6.66669 15 8.90526 15 11.6667C15 14.4281 17.2386 16.6667 20 16.6667Z" stroke="#9DFFFA" stroke-width="3"/>
</svg>
