<svg width="41" height="41" viewBox="0 0 41 41" fill="none" xmlns="http://www.w3.org/2000/svg">
<path d="M7.28007 28.2386L7.41054 34.0705C7.43032 34.9543 7.80038 35.7941 8.43933 36.4051C9.07828 37.0161 9.93377 37.3482 10.8176 37.3285L30.8126 36.8811C31.6964 36.8614 32.5362 36.4913 33.1472 35.8523C33.7582 35.2134 34.0903 34.3579 34.0705 33.4741L33.9401 27.6422M5.52063 24.1103L5.48335 22.444C5.46358 21.5602 5.79572 20.7047 6.4067 20.0658C7.01769 19.4268 7.85746 19.0568 8.7413 19.037L32.0688 18.5151C32.9526 18.4953 33.8081 18.8275 34.4471 19.4385C35.086 20.0494 35.4561 20.8892 35.4758 21.7731L35.5131 23.4393M20.2932 13.7773L20.405 18.776M20.2932 13.7773C22.396 13.7303 23.5896 12.0898 23.5279 9.32884C23.4661 6.56786 20.0696 3.7798 20.0696 3.7798C20.0696 3.7798 16.8011 6.71697 16.8629 9.47795C16.9246 12.2389 18.1904 13.8243 20.2932 13.7773Z" stroke="#9DFFFA" stroke-width="3" stroke-linecap="round" stroke-linejoin="round"/>
<path d="M5.52063 24.1103C5.55029 25.436 6.10539 26.6957 7.06381 27.6122C8.02223 28.5287 9.30546 29.0269 10.6312 28.9972C11.957 28.9676 13.2166 28.4125 14.1331 27.454C15.0496 26.4956 15.5478 25.2124 15.5181 23.8866C15.5478 25.2124 16.1029 26.472 17.0613 27.3885C18.0197 28.305 19.303 28.8032 20.6287 28.7735C21.9545 28.7439 23.2141 28.1888 24.1306 27.2304C25.0471 26.272 25.5453 24.9887 25.5156 23.663C25.5453 24.9887 26.1004 26.2484 27.0588 27.1649C28.0172 28.0813 29.3005 28.5795 30.6262 28.5499C31.952 28.5202 33.2116 27.9651 34.1281 27.0067C35.0446 26.0483 35.5428 24.7651 35.5131 23.4393" stroke="#9DFFFA" stroke-width="3" stroke-linecap="round" stroke-linejoin="round"/>
</svg>
