<svg width="40" height="40" viewBox="0 0 40 40" fill="none" xmlns="http://www.w3.org/2000/svg">
<path d="M25 35C25 35 25 31.2167 25 30C25 28.95 25.25 26.7333 24.1667 25.8333C26.4833 25.6167 28.3 24.8667 30 23.3333C31.7 21.8 32.5 19.4833 32.5 15.8333C32.5 13.3333 32.0833 11.6667 30.8333 10C31.3167 8.7 31.4 6.66667 30.8333 5C28.2333 5 25.8833 6.78333 25 7.5C24.35 7.33333 22.7833 6.66667 20 6.66667C17.2167 6.66667 15.65 7.33333 15 7.5C14.1167 6.78333 11.7667 5 9.16667 5C8.6 6.66667 8.68333 8.7 9.16667 10C7.91667 11.6667 7.5 13.3333 7.5 15.8333C7.5 19.4833 8.3 21.8 10 23.3333C11.7 24.8667 13.5167 25.6167 15.8333 25.8333C14.75 26.7333 15 28.95 15 30C15 31.2167 15 35 15 35" stroke="#9DFFFA" stroke-width="3" stroke-linecap="round" stroke-linejoin="round"/>
<path d="M15 31.6666C12.65 31.6666 10.2667 30.7333 8.85 29.6833C7.45 28.6333 7.03333 26.9166 5 25.8333" stroke="#9DFFFA" stroke-width="3" stroke-linecap="round" stroke-linejoin="round"/>
</svg>
