<svg width="40" height="40" viewBox="0 0 40 40" fill="none" xmlns="http://www.w3.org/2000/svg">
<path d="M6.66666 33.3334C5.74999 33.3334 4.96555 33.0072 4.31333 32.355C3.66111 31.7028 3.33444 30.9178 3.33333 30V10C3.33333 9.08335 3.66 8.29891 4.31333 7.64669C4.96666 6.99446 5.75111 6.6678 6.66666 6.66669H33.3333C34.25 6.66669 35.035 6.99335 35.6883 7.64669C36.3417 8.30002 36.6678 9.08447 36.6667 10V30C36.6667 30.9167 36.3406 31.7017 35.6883 32.355C35.0361 33.0084 34.2511 33.3345 33.3333 33.3334H6.66666ZM20 21.6667L6.66666 13.3334V30H33.3333V13.3334L20 21.6667ZM20 18.3334L33.3333 10H6.66666L20 18.3334ZM6.66666 13.3334V10V30V13.3334Z" fill="#9DFFFA"/>
</svg>
