<svg width="24" height="24" viewBox="0 0 24 24" fill="none" xmlns="http://www.w3.org/2000/svg">
<path d="M16.273 19.45C16.9043 19.696 17.487 19.8847 18.021 20.016L18.028 20.017C18.982 20.252 19.739 20.299 20.278 20.203C20.4286 20.1757 20.558 20.1393 20.666 20.094C20.929 19.984 21.074 19.826 21.15 19.664C21.238 19.477 21.279 19.206 21.228 18.837C21.1881 18.5633 21.1176 18.295 21.018 18.037C20.8823 17.6773 20.7191 17.3286 20.53 16.994L20.52 16.974L20.428 16.814C20.1202 16.2914 19.7788 15.7893 19.406 15.311L19.402 15.305C18.005 13.494 15.912 11.496 13.397 9.71C10.73 7.816 8.14997 6.557 6.15297 6.029L5.98297 5.985L5.97297 5.983C5.01897 5.748 4.26097 5.701 3.72297 5.797C3.54411 5.82532 3.37093 5.88203 3.20997 5.965C3.05222 6.04542 2.9256 6.1759 2.84997 6.336C2.73697 6.576 2.70797 6.944 2.82597 7.447C2.86197 7.60367 2.9143 7.77566 2.98297 7.963C3.07823 8.21923 3.18842 8.46966 3.31297 8.713L3.34297 8.77L3.44897 8.969C3.74197 9.503 4.12497 10.081 4.59397 10.689L4.59697 10.693C5.15107 11.4033 5.74643 12.0805 6.37997 12.721L6.81197 13.155L6.83597 12.847C6.93597 11.561 6.98597 10.918 7.42297 10.689C7.85897 10.459 8.39297 10.796 9.45897 11.469L9.73497 11.643C10.038 11.834 10.189 11.93 10.364 11.953C10.538 11.978 10.716 11.927 11.071 11.826L11.395 11.734C12.646 11.379 13.272 11.201 13.607 11.536C13.942 11.87 13.764 12.496 13.408 13.747L13.316 14.071C13.216 14.426 13.165 14.604 13.189 14.779C13.213 14.954 13.309 15.105 13.499 15.408L13.673 15.684C14.346 16.75 14.683 17.284 14.453 17.719C14.223 18.154 13.581 18.206 12.295 18.306L11.962 18.332C11.597 18.361 11.414 18.375 11.254 18.459C11.094 18.543 10.976 18.687 10.739 18.975L10.523 19.238C9.68697 20.252 9.26897 20.76 8.79297 20.694C8.31697 20.629 8.09697 20.034 7.65797 18.846L7.54397 18.538C7.41897 18.2 7.35697 18.031 7.23397 17.908C7.11097 17.786 6.94197 17.723 6.60397 17.598L6.29697 17.485C5.10697 17.045 4.51297 16.825 4.44797 16.349C4.38297 15.873 4.88997 15.455 5.90497 14.62L6.04397 14.505C5.7979 14.2631 5.55389 14.0191 5.31197 13.773C4.52923 12.9874 3.80434 12.1462 3.14297 11.256C2.9011 10.9251 2.67129 10.5855 2.45397 10.238C2.29739 9.9835 2.14964 9.72368 2.01097 9.459L1.91397 9.267C1.78662 9.0106 1.67312 8.74756 1.57397 8.479C1.49144 8.25531 1.42232 8.02691 1.36697 7.795C1.19097 7.049 1.19697 6.328 1.49197 5.699C1.72558 5.20212 2.12923 4.80521 2.62997 4.58C2.90997 4.447 3.21797 4.359 3.53797 4.308C4.39797 4.172 5.42797 4.288 6.53497 4.58C8.75697 5.167 11.502 6.525 14.265 8.488C17.03 10.452 19.345 12.688 20.848 14.735C21.346 15.412 21.764 16.08 22.079 16.721C22.2305 17.0311 22.364 17.3496 22.479 17.675C22.785 18.577 22.879 19.51 22.507 20.302C22.235 20.882 21.781 21.258 21.237 21.481C21.0163 21.5703 20.7843 21.637 20.541 21.681C20.293 21.7248 20.0418 21.7483 19.79 21.751C19.644 21.753 19.494 21.7497 19.34 21.741C19.0237 21.7224 18.7088 21.685 18.397 21.629C17.573 21.485 16.67 21.217 15.726 20.848C15.6332 20.8129 15.5483 20.7598 15.4762 20.6917C15.4041 20.6235 15.3462 20.5418 15.3059 20.4512C15.2656 20.3605 15.2437 20.2628 15.2414 20.1636C15.2392 20.0645 15.2566 19.9658 15.2927 19.8735C15.3288 19.7811 15.3829 19.6968 15.4518 19.6254C15.5207 19.5541 15.6031 19.4971 15.6942 19.4578C15.7852 19.4185 15.8832 19.3977 15.9824 19.3965C16.0816 19.3954 16.18 19.4139 16.272 19.451" fill="white"/>
<path fill-rule="evenodd" clip-rule="evenodd" d="M19.6649 2.409C19.7426 2.46958 19.8077 2.54489 19.8562 2.63061C19.9048 2.71632 19.9361 2.81077 19.9481 2.90856C19.9602 3.00635 19.9529 3.10556 19.9266 3.20052C19.9003 3.29548 19.8556 3.38433 19.7949 3.462L19.6839 3.604C19.806 4.25852 20.1071 4.86638 20.5539 5.36C20.6806 5.50804 20.7446 5.69955 20.7326 5.894C20.7205 6.08844 20.6332 6.27056 20.4893 6.4018C20.3453 6.53304 20.1559 6.60311 19.9612 6.59718C19.7664 6.59124 19.5817 6.50977 19.4459 6.37C18.998 5.87648 18.6511 5.29995 18.4249 4.673C18.2075 4.8029 17.9773 4.91013 17.7379 4.993C18.0639 5.584 18.2699 6.24 18.3429 6.92C18.3642 7.11785 18.3059 7.31603 18.181 7.47093C18.0561 7.62584 17.8748 7.72478 17.6769 7.746C17.4791 7.76722 17.2809 7.70897 17.126 7.58407C16.9711 7.45917 16.8722 7.27785 16.8509 7.08C16.7826 6.42182 16.5342 5.7952 16.1329 5.269L15.9749 5.263C15.7782 5.2535 15.5931 5.16698 15.4596 5.02213C15.3261 4.87729 15.255 4.68574 15.2615 4.48887C15.2681 4.292 15.3518 4.10562 15.4947 3.96999C15.6375 3.83436 15.828 3.76036 16.0249 3.764L16.4329 3.778C16.9589 3.674 17.2299 3.598 17.4639 3.488C17.6989 3.376 17.9339 3.213 18.3549 2.868L18.6129 2.538C18.7353 2.38136 18.9148 2.27969 19.112 2.25531C19.3093 2.23094 19.5082 2.28685 19.6649 2.409Z" fill="white"/>
</svg>
